<svg width="166" height="133" viewBox="0 0 166 133" fill="none" xmlns="http://www.w3.org/2000/svg">
<g clip-path="url(#clip0_408_574)">
<path d="M0 15.6317V11.0833C0 8.14385 1.09308 5.32476 3.03877 3.24623C4.98446 1.16771 7.62338 0 10.375 0L155.625 0C158.377 0 161.016 1.16771 162.961 3.24623C164.907 5.32476 166 8.14385 166 11.0833V15.6317L83 71.0483L0 15.6317ZM85.7494 82.2841C84.9247 82.8339 83.9721 83.1254 83 83.1254C82.0279 83.1254 81.0753 82.8339 80.2506 82.2841L0 28.7017V121.917C0 124.856 1.09308 127.675 3.03877 129.754C4.98446 131.832 7.62338 133 10.375 133H155.625C158.377 133 161.016 131.832 162.961 129.754C164.907 127.675 166 124.856 166 121.917V28.7017L85.7494 82.2841Z" fill="#8282D8"/>
</g>
<defs>
<clipPath id="clip0_408_574">
<rect width="166" height="133" fill="white"/>
</clipPath>
</defs>
</svg>
