<svg width="200" height="200" viewBox="0 0 200 200" fill="none" xmlns="http://www.w3.org/2000/svg">
<circle cx="100" cy="100" r="100" fill="#D9D9D9" fill-opacity="0.7"/>
<g clip-path="url(#clip0_418_58)">
<path d="M175.03 92.4954L151.441 68.9071V41.6586C151.441 36.7318 147.448 32.7389 142.514 32.7389C137.591 32.7389 133.599 36.7318 133.599 41.6586V51.0654L116.036 33.5014C107.353 24.8226 92.2546 24.838 83.5908 33.5171L24.6113 92.4954C21.1296 95.984 21.1296 101.629 24.6113 105.112C28.0945 108.6 33.7503 108.6 37.2324 105.112L96.2062 46.1321C98.1275 44.221 101.514 44.221 103.425 46.1265L162.409 105.112C164.158 106.856 166.438 107.724 168.718 107.724C171.002 107.724 173.286 106.855 175.03 105.112C178.513 101.629 178.513 95.9843 175.03 92.4954Z" fill="#8282D8"/>
<path d="M102.919 63.0642C101.205 61.3516 98.4312 61.3516 96.7227 63.0642L44.8441 114.928C44.0251 115.746 43.5608 116.864 43.5608 118.03V155.858C43.5608 164.734 50.7579 171.931 59.634 171.931H85.3191V132.153H114.318V171.931H140.002C148.879 171.931 156.076 164.734 156.076 155.858V118.03C156.076 116.864 155.616 115.746 154.792 114.928L102.919 63.0642Z" fill="#8282D8"/>
</g>
<defs>
<clipPath id="clip0_418_58">
<rect width="155.642" height="145.525" fill="white" transform="translate(22 27)"/>
</clipPath>
</defs>
</svg>
