<svg width="200" height="187" viewBox="0 0 200 187" fill="none" xmlns="http://www.w3.org/2000/svg">
<path d="M196.643 84.1616L166.332 53.8506V18.8363C166.332 12.5053 161.201 7.37443 154.861 7.37443C148.535 7.37443 143.405 12.5053 143.405 18.8363V30.924L120.836 8.35425C109.678 -2.798 90.2771 -2.77821 79.1442 8.37443L3.35548 84.1616C-1.11849 88.6444 -1.11849 95.898 3.35548 100.374C7.83148 104.856 15.0992 104.856 19.5736 100.374L95.355 24.5848C97.8238 22.129 102.175 22.129 104.631 24.5776L180.425 100.374C182.673 102.615 185.603 103.73 188.532 103.73C191.468 103.73 194.403 102.614 196.643 100.374C201.119 95.8984 201.119 88.6448 196.643 84.1616Z" fill="#8282D8"/>
<path d="M103.981 46.3424C101.779 44.1417 98.2141 44.1417 96.0187 46.3424L29.3547 112.987C28.3023 114.039 27.7056 115.475 27.7056 116.974V165.582C27.7056 176.988 36.9539 186.236 48.3597 186.236H81.365V135.122H118.628V186.236H151.633C163.039 186.236 172.287 176.988 172.287 165.582V116.974C172.287 115.475 171.696 114.039 170.638 112.987L103.981 46.3424Z" fill="#8282D8"/>
</svg>
