<svg width="200" height="200" viewBox="0 0 200 200" fill="none" xmlns="http://www.w3.org/2000/svg">
<circle cx="100" cy="100" r="100" fill="#D9D9D9" fill-opacity="0.7"/>
<g clip-path="url(#clip0_418_59)">
<path d="M35.0195 60.4137V56.8742C35.0195 54.5867 35.8701 52.3928 37.3843 50.7753C38.8984 49.1577 40.9521 48.249 43.0934 48.249H156.128C158.27 48.249 160.323 49.1577 161.838 50.7753C163.352 52.3928 164.202 54.5867 164.202 56.8742V60.4137L99.6109 103.54L35.0195 60.4137ZM101.751 112.283C101.109 112.711 100.367 112.938 99.6109 112.938C98.8544 112.938 98.1131 112.711 97.4713 112.283L35.0195 70.585V143.126C35.0195 145.413 35.8701 147.607 37.3843 149.225C38.8984 150.842 40.9521 151.751 43.0934 151.751H156.128C158.27 151.751 160.323 150.842 161.838 149.225C163.352 147.607 164.202 145.413 164.202 143.126V70.585L101.751 112.283Z" fill="#8282D8"/>
</g>
<defs>
<clipPath id="clip0_418_59">
<rect width="129.183" height="103.502" fill="white" transform="translate(35.0195 48.249)"/>
</clipPath>
</defs>
</svg>
